<svg width="82" height="76" viewBox="0 0 82 76" fill="none" xmlns="http://www.w3.org/2000/svg">
<path d="M52.1179 27.5109C56.3636 27.5109 59.8054 30.975 59.8054 35.2483V56.7376C59.8054 67.1853 51.3905 75.6549 41.0102 75.6549C30.6298 75.6549 22.2149 67.1853 22.2149 56.7376V35.2483C22.2149 30.975 25.6567 27.5109 29.9024 27.5109H52.1179ZM52.1179 32.6692H29.9024C28.4872 32.6692 27.3399 33.8239 27.3399 35.2483V56.7376C27.3399 64.3365 33.4603 70.4966 41.0102 70.4966C48.56 70.4966 54.6804 64.3365 54.6804 56.7376V35.2483C54.6804 33.8239 53.5331 32.6692 52.1179 32.6692ZM7.6875 27.5109L21.8887 27.5118C20.5402 28.9264 19.5579 30.6974 19.0951 32.6704L7.6875 32.6692C6.27227 32.6692 5.125 33.8239 5.125 35.2483V53.2981C5.125 58.9981 9.71598 63.6189 15.3792 63.6189C16.8855 63.6189 18.316 63.292 19.6044 62.7049C20.0603 64.3879 20.7129 65.9913 21.5314 67.4901C19.6488 68.3173 17.5674 68.7772 15.3792 68.7772C6.88552 68.7772 0 61.847 0 53.2981V35.2483C0 30.975 3.44181 27.5109 7.6875 27.5109ZM74.3125 27.5109C78.5582 27.5109 82 30.975 82 35.2483V53.3023C82 61.8489 75.1164 68.7772 66.625 68.7772C64.4415 68.7772 62.3643 68.3191 60.4831 67.4931L60.6735 67.145C61.4049 65.7481 61.9936 64.2637 62.4202 62.7116C63.6996 63.2945 65.1246 63.6189 66.625 63.6189C72.2859 63.6189 76.875 59 76.875 53.3023V35.2483C76.875 33.8239 75.7277 32.6692 74.3125 32.6692L62.9252 32.6704C62.4624 30.6974 61.4801 28.9264 60.1316 27.5118L74.3125 27.5109ZM41 0C47.6044 0 52.9583 5.38871 52.9583 12.036C52.9583 18.6833 47.6044 24.072 41 24.072C34.3956 24.072 29.0417 18.6833 29.0417 12.036C29.0417 5.38871 34.3956 0 41 0ZM68.3435 3.43886C74.0045 3.43886 78.5935 8.05775 78.5935 13.7554C78.5935 19.4531 74.0045 24.072 68.3435 24.072C62.6826 24.072 58.0935 19.4531 58.0935 13.7554C58.0935 8.05775 62.6826 3.43886 68.3435 3.43886ZM13.6565 3.43886C19.3174 3.43886 23.9065 8.05775 23.9065 13.7554C23.9065 19.4531 19.3174 24.072 13.6565 24.072C7.99555 24.072 3.40647 19.4531 3.40647 13.7554C3.40647 8.05775 7.99555 3.43886 13.6565 3.43886ZM41 5.15829C37.2261 5.15829 34.1667 8.23755 34.1667 12.036C34.1667 15.8345 37.2261 18.9137 41 18.9137C44.7739 18.9137 47.8333 15.8345 47.8333 12.036C47.8333 8.23755 44.7739 5.15829 41 5.15829ZM68.3435 8.59715C65.5131 8.59715 63.2185 10.9066 63.2185 13.7554C63.2185 16.6043 65.5131 18.9137 68.3435 18.9137C71.174 18.9137 73.4685 16.6043 73.4685 13.7554C73.4685 10.9066 71.174 8.59715 68.3435 8.59715ZM13.6565 8.59715C10.826 8.59715 8.53147 10.9066 8.53147 13.7554C8.53147 16.6043 10.826 18.9137 13.6565 18.9137C16.4869 18.9137 18.7815 16.6043 18.7815 13.7554C18.7815 10.9066 16.4869 8.59715 13.6565 8.59715Z" fill="#14C2A3"/>
</svg>
