<svg width="82" height="82" viewBox="0 0 82 82" fill="none" xmlns="http://www.w3.org/2000/svg">
<path d="M76.6213 74.3125H5.33256C2.52406 74.3125 0 72.0139 0 69.1875V38.4375C0 37.9276 0.220375 37.4791 0.515063 37.0794L7.96937 9.57606C8.27175 8.46137 9.27625 7.6875 10.4242 7.6875H71.5296C72.6776 7.6875 73.6821 8.46137 73.9845 9.57606L81.4209 37.0179C81.754 37.4304 82 37.8994 82 38.4375V69.1875C82 72.0139 79.4272 74.3125 76.6213 74.3125ZM76.875 69.1875V41H56.0419C54.8273 48.2621 48.5337 53.8125 40.9769 53.8125C33.4201 53.8125 27.1292 48.2621 25.9146 41H5.125V69.1875H76.875ZM69.5847 12.8125H12.3692L6.12181 35.875H28.2464C29.6532 35.875 30.7936 37.023 30.7936 38.4375C30.7936 44.0904 35.3625 48.6875 40.9769 48.6875C46.5939 48.6875 51.1603 44.0904 51.1603 38.4375C51.1603 37.023 52.3006 35.875 53.7074 35.875H75.8346L69.5847 12.8125Z" fill="#14C2A3" fill-opacity="0.95"/>
</svg>
