<svg width="82" height="82" viewBox="0 0 82 82" fill="none" xmlns="http://www.w3.org/2000/svg">
<path fill-rule="evenodd" clip-rule="evenodd" d="M42.2812 76.875C26.0042 76.875 12.8125 63.1426 12.8125 47.7266C12.8125 44.1468 12.8919 41.2409 15.375 38.4375C15.1059 40.0621 18.9548 53.9534 31.5315 53.2257C30.9857 42.6707 28.1311 16.8126 41.3895 7.87456C40.2185 21.9273 43.6599 40.8052 59.0118 43.5625C58.1329 37.9276 58.2379 28.554 62.1842 26.8217C62.6096 35.4548 68.9928 40.7796 68.9928 49.077C68.9928 64.1035 54.4557 76.875 42.2812 76.875ZM66.3816 17.8171C55.145 21.0202 53.0873 30.1042 53.8125 35.875C45.797 26.4501 46.125 15.6133 46.125 0C20.418 9.69394 26.3963 37.638 25.625 46.125C19.1598 40.8334 17.9375 28.1875 17.9375 28.1875C11.111 31.7007 7.6875 41.0794 7.6875 48.6875C7.6875 67.0863 22.6013 82 41 82C59.3988 82 74.3125 67.0863 74.3125 48.6875C74.3125 37.7533 66.2842 32.7103 66.3816 17.8171Z" fill="#14C2A3" fill-opacity="0.95"/>
</svg>
