<svg width="244" height="74" viewBox="0 0 244 74" fill="none" xmlns="http://www.w3.org/2000/svg">
<g filter="url(#filter0_d_133_295)">
<path fill-rule="evenodd" clip-rule="evenodd" d="M18.0798 17.5022C8.75347 26.5873 7.89426 41.7156 16.4953 52.4606C16.8643 52.9215 17.245 53.3674 17.6368 53.7981L36.2473 36.0695L55.0069 55.5976C64.3643 46.5161 65.2357 31.3648 56.6245 20.6071C55.9728 19.7929 55.2843 19.0258 54.5636 18.3064L35.9166 36.0697L18.0798 17.5022Z" fill="#14C2A3" fill-opacity="0.95" shape-rendering="crispEdges"/>
</g>
<g filter="url(#filter1_d_133_295)">
<path fill-rule="evenodd" clip-rule="evenodd" d="M25.5437 18.4304C16.2165 27.5154 15.357 42.6443 23.9583 53.3896C24.3273 53.8507 24.7082 54.2966 25.1 54.7274L43.7114 36.998L62.4707 56.5258C71.8273 47.4442 72.6984 32.2935 64.0875 21.5362C63.4358 20.7221 62.7474 19.955 62.0268 19.2357L43.3807 36.9982L25.5437 18.4304Z" fill="#14C2A3" fill-opacity="0.95" shape-rendering="crispEdges"/>
</g>
<path d="M85.0252 44.2179V40.6979H89.5852V42.8179L91.1052 44.3379H99.8252L101.425 42.7379V37.5779L99.8652 36.0179H89.2252L85.1052 31.9379V24.4579L89.2252 20.3379H101.545L105.665 24.4579V28.0179H101.105V25.8579L99.5452 24.3379H91.2252L89.6652 25.8579V30.4979L91.2252 32.0179H101.865L105.985 36.1379V44.1379L101.785 48.3379H89.1452L85.0252 44.2179ZM110.581 28.4179H114.781V31.5379L117.941 28.4179H125.581L129.581 32.4179V44.3379L125.581 48.3379H117.901L115.101 45.9779V56.8179H110.581V28.4179ZM123.461 44.4579L125.061 42.8979V33.8579L123.461 32.2979H118.661L115.101 35.8579V41.4179L118.461 44.4579H123.461ZM133.771 44.7779V40.0579L137.331 36.5379H147.611V33.5779L146.131 32.0979H139.851L138.371 33.5779V34.8579H133.931V32.5379L138.011 28.4179H147.971L152.051 32.5379V48.3379H147.931V45.2579L144.731 48.3379H137.331L133.771 44.7779ZM144.291 44.7779L147.611 41.5779V39.8979H139.491L138.211 41.1379V43.5779L139.411 44.7779H144.291ZM157.066 28.4179H161.266V31.8179L164.586 28.4179H170.106V32.2979H165.586L161.586 36.3779V48.3379H157.066V28.4179ZM173.121 19.7779H177.641V36.0579H181.521L186.841 28.4179H191.841L185.161 38.0179L192.241 48.3379H187.241L181.441 39.8979H177.641V48.3379H173.121V19.7779ZM213.039 28.4179V53.0579L208.919 57.1379H198.759L195.239 53.6579V51.0179H199.759V52.3379L200.719 53.3379H206.959L208.519 51.7379V44.9379L205.159 48.3379H198.719L194.639 44.2179V28.4179H199.159V42.8979L200.719 44.4579H204.359L208.519 40.1379V28.4179H213.039Z" fill="#DEFDF7"/>
<defs>
<filter id="filter0_d_133_295" x="6.53369" y="17.5022" width="60.0527" height="46.0955" filterUnits="userSpaceOnUse" color-interpolation-filters="sRGB">
<feFlood flood-opacity="0" result="BackgroundImageFix"/>
<feColorMatrix in="SourceAlpha" type="matrix" values="0 0 0 0 0 0 0 0 0 0 0 0 0 0 0 0 0 0 127 0" result="hardAlpha"/>
<feOffset dy="4"/>
<feGaussianBlur stdDeviation="2"/>
<feComposite in2="hardAlpha" operator="out"/>
<feColorMatrix type="matrix" values="0 0 0 0 0 0 0 0 0 0 0 0 0 0 0 0 0 0 0.25 0"/>
<feBlend mode="normal" in2="BackgroundImageFix" result="effect1_dropShadow_133_295"/>
<feBlend mode="normal" in="SourceGraphic" in2="effect1_dropShadow_133_295" result="shape"/>
</filter>
<filter id="filter1_d_133_295" x="13.9966" y="18.4304" width="60.0527" height="46.0955" filterUnits="userSpaceOnUse" color-interpolation-filters="sRGB">
<feFlood flood-opacity="0" result="BackgroundImageFix"/>
<feColorMatrix in="SourceAlpha" type="matrix" values="0 0 0 0 0 0 0 0 0 0 0 0 0 0 0 0 0 0 127 0" result="hardAlpha"/>
<feOffset dy="4"/>
<feGaussianBlur stdDeviation="2"/>
<feComposite in2="hardAlpha" operator="out"/>
<feColorMatrix type="matrix" values="0 0 0 0 0 0 0 0 0 0 0 0 0 0 0 0 0 0 0.25 0"/>
<feBlend mode="normal" in2="BackgroundImageFix" result="effect1_dropShadow_133_295"/>
<feBlend mode="normal" in="SourceGraphic" in2="effect1_dropShadow_133_295" result="shape"/>
</filter>
</defs>
</svg>
