<svg width="104" height="80" viewBox="0 0 104 80" fill="none" xmlns="http://www.w3.org/2000/svg">
<path d="M98.1028 22.1746C94.6553 11.1594 89.1403 5.20202 82.4538 2.80996C80.5494 2.12856 78.5079 2 76.4869 2H73.4244C69.0369 2 64.7569 3.37314 61.1754 5.93012L58.6659 7.72158C56.7169 9.11303 54.3879 9.86025 51.9999 9.86025C49.6124 9.86025 47.2834 9.11303 45.3344 7.72168L42.8249 5.93012C39.243 3.37314 34.9631 2 30.5751 2H27.5128C25.4918 2 23.4504 2.12856 21.5457 2.80996C9.63222 7.07221 1.43744 22.654 2.03018 57.9978C2.14958 65.1189 3.80148 72.9895 10.1711 76.0621C12.156 77.0199 14.4833 77.6549 17.1335 77.6549C20.3136 77.6549 22.8389 76.7405 24.7881 75.4519C29.3576 72.4307 32.706 67.3855 37.5562 64.8486C40.4759 63.3213 43.7169 62.5239 47.0054 62.5239H56.9944C60.2829 62.5239 63.5239 63.3213 66.4439 64.8486C71.2939 67.3855 74.6424 72.4307 79.2119 75.4519C81.1609 76.7405 83.6864 77.6549 86.8663 77.6549C89.5163 77.6549 91.8438 77.0199 93.8288 76.0621C100.198 72.9895 101.85 65.1189 101.97 57.9978C102.066 52.2757 101.931 47.0712 101.588 42.3493" stroke="#14C2A3" stroke-width="3.75" stroke-linecap="round"/>
<path d="M29.501 27.2183V42.3493V27.2183ZM22.001 34.7838H37.001H22.001Z" fill="#14C2A3"/>
<path d="M29.501 27.2183V42.3493M22.001 34.7838H37.001" stroke="#14C2A3" stroke-width="3.75" stroke-linecap="round"/>
<path d="M87 33.5229C87 35.612 85.321 37.3057 83.25 37.3057C81.179 37.3057 79.5 35.612 79.5 33.5229C79.5 31.4338 81.179 29.7402 83.25 29.7402C85.321 29.7402 87 31.4338 87 33.5229Z" fill="#14C2A3"/>
<path d="M72 33.5229C72 35.612 70.321 37.3057 68.25 37.3057C66.179 37.3057 64.5 35.612 64.5 33.5229C64.5 31.4338 66.179 29.7402 68.25 29.7402C70.321 29.7402 72 31.4338 72 33.5229Z" fill="#14C2A3"/>
<path d="M75.751 22.1746C77.822 22.1746 79.501 23.8682 79.501 25.9574C79.501 28.0465 77.822 29.7401 75.751 29.7401C73.68 29.7401 72.001 28.0465 72.001 25.9574C72.001 23.8682 73.68 22.1746 75.751 22.1746Z" fill="#14C2A3"/>
<path d="M75.751 37.3056C77.822 37.3056 79.501 38.9993 79.501 41.0883C79.501 43.1774 77.822 44.8711 75.751 44.8711C73.68 44.8711 72.001 43.1774 72.001 41.0883C72.001 38.9993 73.68 37.3056 75.751 37.3056Z" fill="#14C2A3"/>
</svg>
