<svg width="99" height="90" viewBox="0 0 99 90" fill="none" xmlns="http://www.w3.org/2000/svg">
<path fill-rule="evenodd" clip-rule="evenodd" d="M67.9011 0.536935C75.2912 -1.595 82.9969 2.83738 84.3794 10.0154L85.8123 17.4568C90.9707 19.0551 94.6957 23.6383 94.6957 29.0429V40.2749C97.3372 42.5071 99 45.7513 99 49.3619V57.4896C99 61.1002 97.3372 64.3444 94.6957 66.5766V77.8086C94.6957 84.5419 88.9145 90 81.7826 90H12.913C5.78138 90 0 84.5419 0 77.8086V29.0429C0 23.0004 4.65619 17.9846 10.7659 17.0193L67.9011 0.536935ZM86.087 61.5534C88.4643 61.5534 90.3913 59.734 90.3913 57.4896V49.3619C90.3913 47.1175 88.4643 45.2981 86.087 45.2981H73.1739C70.7966 45.2981 68.8696 47.1175 68.8696 49.3619V57.4896C68.8696 59.734 70.7966 61.5534 73.1739 61.5534H86.087ZM86.087 69.681V77.8086C86.087 80.053 84.1599 81.8724 81.7826 81.8724H12.913C10.5358 81.8724 8.6087 80.053 8.6087 77.8086V29.0429C8.6087 26.7986 10.5358 24.9791 12.913 24.9791H81.7826C84.15 24.9791 86.0706 26.7833 86.087 29.0146V37.1705H73.1739C66.042 37.1705 60.2609 42.6286 60.2609 49.3619V57.4896C60.2609 64.2229 66.042 69.681 73.1739 69.681H86.087ZM76.1672 11.1908L77.2252 16.8515H38.7391L70.6912 8.00463C73.1589 7.30578 75.7195 8.79578 76.1672 11.1908Z" fill="#14C2A3" fill-opacity="0.95"/>
</svg>
