<svg width="100" height="76" viewBox="0 0 100 76" fill="none" xmlns="http://www.w3.org/2000/svg">
<path d="M96.0061 64.8709C94.1779 69.0162 89.4622 72.7706 85.0339 73.5996C84.5808 73.6847 73.7586 75.6549 50.0297 75.6549H49.9672C26.2414 75.6549 15.4099 73.6847 14.9598 73.6028C10.5316 72.7706 5.81268 69.0162 3.98137 64.8678C3.81887 64.499 0 55.6284 0 37.8275C0 20.0265 3.81887 11.1528 3.98137 10.784C5.81268 6.63557 10.5316 2.88434 14.9598 2.05529C15.4099 1.97018 26.2414 0 49.9672 0C73.7586 0 84.5808 1.97018 85.0308 2.05214C89.4622 2.88434 94.1779 6.63557 96.0092 10.7808C96.1718 11.1528 100 20.0265 100 37.8275C100 55.6284 96.1718 64.499 96.0061 64.8709ZM90.2903 13.3342C89.3153 11.1244 86.2589 8.69716 83.8901 8.25269C83.7901 8.23378 73.0804 6.30458 50.0297 6.30458C26.9196 6.30458 16.2005 8.23378 16.0974 8.25269C13.7286 8.69716 10.6753 11.1244 9.69718 13.3468C9.66593 13.413 6.25332 21.527 6.25332 37.8275C6.25332 54.1248 9.66593 62.2388 9.70343 62.3207C10.6753 64.5305 13.7286 66.9578 16.1005 67.4022C16.2005 67.4211 26.9196 69.3503 49.9672 69.3503H50.0297C73.0804 69.3503 83.7901 67.4211 83.8932 67.4022C86.2621 66.9578 89.3153 64.5305 90.2934 62.3081C90.3247 62.2388 93.7435 54.1248 93.7435 37.8275C93.7435 21.5301 90.3247 13.413 90.2903 13.3342ZM42.3138 56.2557C41.8076 56.5804 41.2263 56.7412 40.6481 56.7412C40.1294 56.7412 39.6106 56.6119 39.1387 56.3472C38.1418 55.7924 37.523 54.7363 37.523 53.5889V22.066C37.523 20.9217 38.1356 19.8689 39.1262 19.3141C40.1169 18.7561 41.3325 18.7813 42.2919 19.3834L67.3521 35.0062C68.2678 35.5767 68.8303 36.5855 68.8334 37.673C68.8365 38.7605 68.2865 39.7756 67.374 40.3524L42.3138 56.2557ZM43.7764 27.7212V47.8801L59.8019 37.7108L43.7764 27.7212Z" fill="#14C2A3"/>
</svg>
