<svg xmlns="http://www.w3.org/2000/svg" viewBox="0 0 300 300" width="300" height="300" preserveAspectRatio="xMidYMid meet" style="width: 100%; height: 100%; transform: translate3d(0px, 0px, 0px); content-visibility: visible;"><defs><clipPath id="__lottie_element_294"><rect width="300" height="300" x="0" y="0"></rect></clipPath></defs><g clip-path="url(#__lottie_element_294)"><g transform="matrix(0.3799999952316284,0,0,0.3799999952316284,139.27183532714844,166.6318359375)" opacity="0.4" style="display: block;"><g opacity="1" transform="matrix(1,0,0,1,28.23200035095215,-43.768001556396484)"><path fill="rgb(26,74,131)" fill-opacity="1" d=" M0,-100.23249816894531 C55.31831741333008,-100.23249816894531 100.23249816894531,-55.31831741333008 100.23249816894531,0 C100.23249816894531,55.31831741333008 55.31831741333008,100.23249816894531 0,100.23249816894531 C-55.31831741333008,100.23249816894531 -100.23249816894531,55.31831741333008 -100.23249816894531,0 C-100.23249816894531,-55.31831741333008 -55.31831741333008,-100.23249816894531 0,-100.23249816894531z"></path></g></g><g transform="matrix(0.3799999952316284,0,0,0.3799999952316284,139.27183532714844,166.6318359375)" opacity="0.4" style="display: block;"><g opacity="1" transform="matrix(1,0,0,1,28.23200035095215,-43.768001556396484)"><path fill="rgb(26,74,131)" fill-opacity="1" d=" M0,-100.23249816894531 C55.31831741333008,-100.23249816894531 100.23249816894531,-55.31831741333008 100.23249816894531,0 C100.23249816894531,55.31831741333008 55.31831741333008,100.23249816894531 0,100.23249816894531 C-55.31831741333008,100.23249816894531 -100.23249816894531,55.31831741333008 -100.23249816894531,0 C-100.23249816894531,-55.31831741333008 -55.31831741333008,-100.23249816894531 0,-100.23249816894531z"></path></g></g><g transform="matrix(0.3799999952316284,0,0,0.3799999952316284,139.27183532714844,166.6318359375)" opacity="1" style="display: block;"><g opacity="1" transform="matrix(1,0,0,1,28.23200035095215,-43.768001556396484)"><path fill="rgb(26,74,131)" fill-opacity="1" d=" M0,-100.23249816894531 C55.31831741333008,-100.23249816894531 100.23249816894531,-55.31831741333008 100.23249816894531,0 C100.23249816894531,55.31831741333008 55.31831741333008,100.23249816894531 0,100.23249816894531 C-55.31831741333008,100.23249816894531 -100.23249816894531,55.31831741333008 -100.23249816894531,0 C-100.23249816894531,-55.31831741333008 -55.31831741333008,-100.23249816894531 0,-100.23249816894531z"></path></g></g><g transform="matrix(1,0,0,1,153,150)" opacity="1" style="display: block;"><path fill="rgb(255,255,255)" fill-opacity="1" d=" M12.5,0 C12.5,0 -12.5,-14.434000015258789 -12.5,-14.434000015258789 C-12.5,-14.434000015258789 -12.5,14.434000015258789 -12.5,14.434000015258789 C-12.5,14.434000015258789 12.5,0 12.5,0z"></path></g></g></svg>